PathFileType	4	(X/Y/Z)	Walk10.trc
DataRate	CameraRate	NumFrames	NumMarkers	Units	OrigDataRate	OrigDataStartFrame	OrigNumFrames
200.000000	200.000000	4	59	mm	200.000000	272	589
Frame#	Times		CLAV		RASI		RACR1		RUA1		RFA1		RWRU		LACR1		LFA1		LCAR		RTH3		RTH2		LTH4		LLFC		LTB1		LTB3		STRN		LTB4		LASI		RElbow		RTH1		RLFC		LTH2		LTH3		LToe		LTH1		LWRR		RBack		C7		RCAR		LTB2		LMT1		RTH4		LFHD		RWRR		LMMAL		T10		LMT5		RFHD		LLMAL		RBHD		RPSI		LPSI		LUA1		RTB2		LBHD		RTB4		LElbow		RTB1		RMT1		RElbowM		RTB3		RToe		RCAL		LElbowM		LCAL		LWRU		RMMAL		RLMAL		RMT5
			X1	Y1	Z1	X2	Y2	Z2	X3	Y3	Z3	X4	Y4	Z4	X5	Y5	Z5	X6	Y6	Z6	X7	Y7	Z7	X8	Y8	Z8	X9	Y9	Z9	X10	Y10	Z10	X11	Y11	Z11	X12	Y12	Z12	X13	Y13	Z13	X14	Y14	Z14	X15	Y15	Z15	X16	Y16	Z16	X17	Y17	Z17	X18	Y18	Z18	X19	Y19	Z19	X20	Y20	Z20	X21	Y21	Z21	X22	Y22	Z22	X23	Y23	Z23	X24	Y24	Z24	X25	Y25	Z25	X26	Y26	Z26	X27	Y27	Z27	X28	Y28	Z28	X29	Y29	Z29	X30	Y30	Z30	X31	Y31	Z31	X32	Y32	Z32	X33	Y33	Z33	X34	Y34	Z34	X35	Y35	Z35	X36	Y36	Z36	X37	Y37	Z37	X38	Y38	Z38	X39	Y39	Z39	X40	Y40	Z40	X41	Y41	Z41	X42	Y42	Z42	X43	Y43	Z43	X44	Y44	Z44	X45	Y45	Z45	X46	Y46	Z46	X47	Y47	Z47	X48	Y48	Z48	X49	Y49	Z49	X50	Y50	Z50	X51	Y51	Z51	X52	Y52	Z52	X53	Y53	Z53	X54	Y54	Z54	X55	Y55	Z55	X56	Y56	Z56	X57	Y57	Z57	X58	Y58	Z58	X59	Y59	Z59

272	1.36	-661.49	1324.6	-46.283	-643.42	928.24	112.53	-711.83	1338.2	127.29	-697.72	1130.6	195.35	-578.94	917.2	203.05	-555.57	806.45	205.38	-730.33	1333.1	-214.07	-790.44	888.89	-290.42	-809.16	727.44	-302.83	-795.67	547.08	97.215	-713.11	635.37	88.605	-661	630.14	-194.28	-599.23	448.56	-158.69	-530.45	370.27	-84.437	-478.53	189.41	-87.41	-585.97	1098.9	-37.713	-502.43	278.74	-89.978	-631.56	919.71	-164.34	-692.07	1023.5	224.09	-760.94	727.93	141.2	-829.91	444.58	79.875	-600.23	656.25	-153.81	-630.55	547.42	-175.21	-295.16	100.61	-125.97	-692.76	721.1	-208.74	-790.79	766.51	-259.13	-829.57	1297.9	58.594	-788.51	1401.3	-41.768	-496.23	794.42	192.54	-533.78	272.25	-154.94	-326.7	91.203	-100.79	-779.07	637.48	117.35	-625.18	1567.8	-78.997	-521.72	838.97	148.83	-461.02	88.865	-52.467	-818.53	1116.9	-35.247	-360.01	52.899	-159.71	-620.4	1572.9	-6.0331	-477.14	65.427	-130.27	-790.74	1530.6	27.436	-848.81	964.01	24.238	-846.18	952.73	-89.862	-781.91	1129.7	-256.2	-914.86	246	64.421	-793.7	1533.1	-99.685	-904.39	241.6	-5.8572	-817.03	1015.4	-264.58	-853.66	319.96	-0.13322	-892.71	33.779	-1.007	-720.92	994.1	147.69	-954.37	164.24	-12.567	-852.97	24.031	42.04	-1092.1	63.359	-18.649	-823.71	1001.4	-195.34	-506.73	21.388	-70.436	-846.75	779.54	-301.77	-1015.8	93.69	-46.151	-1041	85.078	32.194	-948.14	21.104	77.854
273	1.365	-655.14	1323.9	-46.982	-637.31	927.63	112.45	-705.55	1337.5	126.58	-691.45	1129.9	194.73	-573.04	916.46	202.81	-549.71	805.71	205.25	-724.05	1332.2	-214.76	-785.58	888.17	-290.67	-804.46	726.8	-302.88	-790.57	546.48	97.158	-707.72	634.5	88.401	-653.77	630.18	-194.18	-592.1	448.39	-158.61	-524.23	369.63	-84.009	-473.37	188.56	-86.867	-579.54	1098.2	-38.28	-496.71	277.99	-89.489	-624.76	918.97	-164.29	-686.13	1022.9	223.69	-755.2	727.25	140.99	-825.43	444.2	79.776	-593.15	656.35	-153.52	-623.25	547.5	-175.1	-290.17	97.124	-124.51	-685.61	721.07	-208.79	-785.92	765.87	-259.26	-823.25	1297.1	57.871	-782.24	1400.5	-42.47	-490.35	793.7	192.48	-527.7	271.76	-154.59	-322.17	88.526	-99.622	-773.64	636.85	117.22	-619.17	1567.3	-79.61	-515.79	838.19	148.69	-456.77	87.865	-51.987	-812.01	1116.2	-35.832	-355.56	50.433	-158.87	-614.41	1572.3	-6.6355	-472.77	64.719	-129.9	-784.7	1529.8	26.792	-842.41	963.33	23.76	-839.66	952.28	-90.369	-776.29	1129	-256.72	-912.43	246.52	64.752	-787.62	1532.3	-100.34	-901.95	241.82	-5.4612	-811.92	1014.8	-264.91	-850.29	319.61	0.084863	-892.66	33.695	-0.99488	-714.87	993.37	147.24	-952.77	165.04	-12.092	-852.93	24.006	41.959	-1091.6	65.819	-18.115	-818.51	1000.9	-195.66	-503.35	21.459	-70.271	-842.03	778.88	-301.71	-1014.9	95.198	-45.619	-1040.3	86.878	32.714	-948.05	21.074	77.814
274	1.37	-648.77	1323.2	-47.709	-631.15	927	112.31	-699.23	1336.8	125.84	-685.2	1129.3	194.09	-567.24	915.72	202.57	-543.99	804.95	205.13	-717.74	1331.4	-215.48	-780.66	887.51	-290.93	-799.64	726.2	-302.93	-785.31	545.87	97.075	-702.2	633.65	88.158	-646.46	630.37	-194.07	-584.9	448.33	-158.56	-518.08	369.02	-83.589	-468.54	187.69	-86.319	-573.05	1097.5	-38.872	-491.17	277.23	-89.001	-617.94	918.3	-164.26	-680.25	1022.3	223.26	-749.36	726.58	140.74	-820.75	443.82	79.654	-585.95	656.58	-153.27	-615.86	547.72	-175	-285.61	93.124	-122.98	-678.37	721.2	-208.81	-780.94	765.28	-259.4	-816.9	1296.3	57.119	-775.95	1399.8	-43.197	-484.61	792.96	192.45	-521.79	271.32	-154.24	-318.12	85.458	-98.391	-768.07	636.21	117.05	-613.13	1566.8	-80.234	-509.98	837.39	148.57	-453.02	86.808	-51.506	-805.45	1115.5	-36.415	-351.65	47.695	-158.06	-608.4	1571.8	-7.2469	-468.91	64.007	-129.55	-778.64	1529	26.13	-835.98	962.7	23.316	-833.14	951.92	-90.856	-770.62	1128.4	-257.27	-909.83	247.11	65.12	-781.52	1531.5	-101.02	-899.35	242.1	-5.0342	-806.75	1014.2	-265.26	-846.75	319.28	0.31832	-892.61	33.608	-0.97843	-708.87	992.68	146.75	-951.04	165.93	-11.56	-852.89	23.981	41.865	-1091	68.473	-17.494	-813.25	1000.4	-196.01	-500.6	21.626	-70.15	-837.21	778.25	-301.64	-1014	96.828	-45.01	-1039.4	88.823	33.305	-947.95	21.055	77.779
275	1.375	-642.36	1322.6	-48.463	-624.93	926.35	112.1	-692.87	1336.2	125.09	-678.96	1128.8	193.43	-561.55	914.98	202.34	-538.42	804.19	205.02	-711.42	1330.7	-216.23	-775.67	886.9	-291.2	-794.71	725.65	-302.98	-779.87	545.25	96.966	-696.53	632.83	87.876	-639.1	630.7	-193.95	-577.66	448.39	-158.54	-512	368.46	-83.183	-463.99	186.81	-85.774	-566.51	1096.9	-39.487	-485.8	276.49	-88.52	-611.09	917.71	-164.26	-674.42	1021.7	222.8	-743.41	725.91	140.44	-815.84	443.44	79.509	-578.66	656.95	-153.06	-608.4	548.08	-174.92	-281.45	88.694	-121.39	-671.08	721.46	-208.8	-775.85	764.75	-259.55	-810.52	1295.6	56.342	-769.62	1399.2	-43.947	-479.02	792.18	192.44	-516.03	270.94	-153.9	-314.49	82.078	-97.115	-762.36	635.56	116.85	-607.08	1566.4	-80.867	-504.29	836.56	148.47	-449.71	85.728	-51.032	-798.87	1114.8	-36.991	-348.22	44.77	-157.3	-602.38	1571.4	-7.8666	-465.49	63.32	-129.21	-772.55	1528.2	25.447	-829.53	962.1	22.911	-826.62	951.67	-91.317	-764.9	1127.8	-257.84	-907.06	247.78	65.528	-775.4	1530.9	-101.7	-896.59	242.43	-4.5738	-801.53	1013.7	-265.63	-843.02	318.97	0.56863	-892.57	33.517	-0.95716	-702.92	992.05	146.24	-949.18	166.91	-10.966	-852.87	23.954	41.758	-1090.3	71.341	-16.78	-807.95	999.98	-196.37	-498.4	21.894	-70.077	-832.3	777.66	-301.58	-1012.9	98.589	-44.315	-1038.5	90.923	33.971	-947.84	21.051	77.751
